{"title":"Bangalore.Days.2014.Malayalam.DVDRip.x264-N3kr4","uid":10990376,"size":748214289,"categoryP":"video","categoryS":"movies","magnet":"?xt=urn:btih:2426750657bc8df7d4fce2fcdd0773a85d24bc15&amp;dn=Bangalore.Days.2014.Malayalam.DVDRip.x264-N3kr4&amp;tr=udp%3A%2F%2Ftracker.openbittorrent.com%3A80&amp;tr=udp%3A%2F%2Fopen.demonii.com%3A1337&amp;tr=udp%3A%2F%2Ftracker.coppersurfer.tk%3A6969&amp;tr=udp%3A%2F%2Fexodus.desync.com%3A6969","seeders":4,"leechers":5,"uploader":"Falcon.G13","files":5,"time":1409998658,"description":" &lt;a href=&quot;http://i.imgur.com/7XpHZWL.jpg&quot; rel=&quot;nofollow&quot; target=&quot;_NEW&quot;&gt;http://i.imgur.com/7XpHZWL.jpg&lt;/a&gt; &lt;a href=&quot;\nhttp://i.imgur.com/u5JcS98.jpg&quot; rel=&quot;nofollow&quot; target=&quot;_NEW&quot;&gt;\nhttp://i.imgur.com/u5JcS98.jpg&lt;/a&gt; &lt;a href=&quot;\nhttp://i.imgur.com/6uzWFWz.jpg&quot; rel=&quot;nofollow&quot; target=&quot;_NEW&quot;&gt;\nhttp://i.imgur.com/6uzWFWz.jpg&lt;/a&gt; &lt;a href=&quot;\nhttp://i.imgur.com/RE0CwJ5.jpg&quot; rel=&quot;nofollow&quot; target=&quot;_NEW&quot;&gt;\nhttp://i.imgur.com/RE0CwJ5.jpg&lt;/a&gt; &lt;a href=&quot;\nhttp://i.imgur.com/avG3wxd.jpg&quot; rel=&quot;nofollow&quot; target=&quot;_NEW&quot;&gt;\nhttp://i.imgur.com/avG3wxd.jpg&lt;/a&gt; &lt;a href=&quot;\nhttp://i.imgur.com/peBfiqI.jpg&quot; rel=&quot;nofollow&quot; target=&quot;_NEW&quot;&gt;\nhttp://i.imgur.com/peBfiqI.jpg&lt;/a&gt; &lt;a href=&quot;\nhttp://i.imgur.com/dczNa1r.jpg&quot; rel=&quot;nofollow&quot; target=&quot;_NEW&quot;&gt;\nhttp://i.imgur.com/dczNa1r.jpg&lt;/a&gt; &lt;a href=&quot;\nhttp://i.imgur.com/R8QjiTj.jpg&quot; rel=&quot;nofollow&quot; target=&quot;_NEW&quot;&gt;\nhttp://i.imgur.com/R8QjiTj.jpg&lt;/a&gt;\n\nGeneral\nComplete name : Bangalore.Days.2014.Malayalam.DVDRip.x264-N3kr4.mp4\nFormat : MPEG-4\nFormat profile : Base Media\nCodec ID : isom\nFile size : 699 MiB\nDuration : 2h 51mn\nOverall bit rate mode : Variable\nOverall bit rate : 571 Kbps\nEncoded date : UTC 2014-08-29 16:55:00\nTagged date : UTC 2014-08-29 16:55:00\n\nVideo\nID : 1\nFormat : AVC\nFormat/Info : Advanced Video Codec\nFormat profile : &lt;a class=&quot;__cf_email__&quot; href=&quot;/cdn-cgi/l/email-protection&quot; data-cfemail=&quot;0e436f67604e423d203f&quot;&gt;[email&amp;#160;protected]&lt;/a&gt;&lt;script cf-hash='f9e31' type=&quot;text/javascript&quot;&gt;\n/* &lt;![CDATA[ */!function(){try{var t=&quot;currentScript&quot;in document?document.currentScript:function(){for(var t=document.getElementsByTagName(&quot;script&quot;),e=t.length;e--;)if(t[e].getAttribute(&quot;cf-hash&quot;))return t[e]}();if(t&amp;&amp;t.previousSibling){var e,r,n,i,c=t.previousSibling,a=c.getAttribute(&quot;data-cfemail&quot;);if(a){for(e=&quot;&quot;,r=parseInt(a.substr(0,2),16),n=2;a.length-n;n+=2)i=parseInt(a.substr(n,2),16)^r,e+=String.fromCharCode(i);e=document.createTextNode(e),c.parentNode.replaceChild(e,c)}}}catch(u){}}();/* ]]&gt; */&lt;/script&gt;\nFormat settings, CABAC : Yes\nFormat settings, ReFrames : 3 frames\nCodec ID : avc1\nCodec ID/Info : Advanced Video Coding\nDuration : 2h 51mn\nBit rate : 489 Kbps\nMaximum bit rate : 2 821 Kbps\nWidth : 640 pixels\nHeight : 272 pixels\nDisplay aspect ratio : 2.35:1\nFrame rate mode : Constant\nFrame rate : 23.976 fps\nColor space : YUV\nChroma subsampling : 4:2:0\nBit depth : 8 bits\nScan type : Progressive\nBits/(Pixel*Frame) : 0.117\nStream size : 599 MiB (86%)\n\nAudio\nID : 2\nFormat : MPEG Audio\nFormat version : Version 1\nFormat profile : Layer 3\nMode : Joint stereo\nMode extension : MS Stereo\nCodec ID : 6B\nDuration : 2h 51mn\nBit rate mode : Variable\nBit rate : 80.0 Kbps\nMaximum bit rate : 103 Kbps\nChannel(s) : 2 channels\nSampling rate : 32.0 KHz\nCompression mode : Lossy\nStream size : 96.5 MiB (14%)\nWriting library : LAME3.99r\nEncoding settings : -m j -V 4 -q 2 -lowpass 13.5 --abr 80\nEncoded date : UTC 2014-08-29 16:55:39\nTagged date : UTC 2014-08-29 16:55:46","torrent":{"xt":"urn:btih:2426750657bc8df7d4fce2fcdd0773a85d24bc15","amp;dn":"Bangalore.Days.2014.Malayalam.DVDRip.x264-N3kr4","amp;tr":["udp%3A%2F%2Ftracker.openbittorrent.com%3A80","udp%3A%2F%2Fopen.demonii.com%3A1337","udp%3A%2F%2Ftracker.coppersurfer.tk%3A6969","udp%3A%2F%2Fexodus.desync.com%3A6969"],"infoHash":"2426750657bc8df7d4fce2fcdd0773a85d24bc15","infoHashBuffer":{"type":"Buffer","data":[36,38,117,6,87,188,141,247,212,252,226,252,221,7,115,168,93,36,188,21]},"announce":[],"urlList":[]}}